<?xml version="1.0" encoding="utf-8"?>
<!-- Generator: Adobe Illustrator 27.5.0, SVG Export Plug-In . SVG Version: 6.00 Build 0)  -->
<svg version="1.1" xmlns="http://www.w3.org/2000/svg" xmlns:xlink="http://www.w3.org/1999/xlink" x="0px" y="0px"
	 viewBox="0 0 500 500" style="enable-background:new 0 0 500 500;" xml:space="preserve">
<g id="BACKGROUND">
</g>
<g id="OBJECTS">
	<g>
		<text transform="matrix(1 0 0 1 158.0831 69.3997)" style="fill:#265161; font-family:'Raleway-Black'; font-size:28.8685px;">CONTACT US</text>
		<g>
			<path style="fill:#46ACC3;" d="M479.704,407.085c-1.198-14.106-11.881-35.798-19.01-47.633
				c-7.129-11.835-14.783-23.76-17.756-37.55c-3.034-14.071-0.946-29.101-4.652-42.979c-4.584-17.165-17.363-30.182-30.684-40.576
				c-13.322-10.393-27.902-19.256-39.006-32.394c-12.359-14.622-19.499-33.443-28.525-50.73
				c-9.025-17.287-21.252-34.212-38.617-40.236c-9.775-3.391-19.942-2.915-29.875-0.145c-0.005-0.035-0.009-0.069-0.014-0.104
				c-12.528,0.46-22.518,10.102-33.814,15.538c-28.106,13.526-63.09,0.437-92.003,12.138c-16.175,6.545-28.953,20.949-33.524,37.788
				c-2.387,8.795-2.699,18.217-3.542,27.395c-2.233,4.079-4.339,8.244-6.396,12.356c-4.629,9.254-9.259,18.508-13.888,27.762
				c-15.103,10.85-35.2,17.027-43.239,33.68c-5.02,10.4-4,22.768-0.754,33.851c2.614,8.926,6.551,17.402,9.797,26.117
				c-1.167,7.459-2.701,14.778-5.687,21.586c-4.287,9.772-11.257,17.766-17.251,26.401c-5.994,8.634-11.243,18.667-11.109,29.501
				c0.001,0.055,0.002,0.111,0.003,0.166c0.176,8.977,7.106,16.052,15.327,16.052h427.745c6.377,0,12.105-4.302,14.351-10.821
				C479.449,418.817,480.191,412.808,479.704,407.085z"/>
			<g>
				<g>
					<polygon style="fill:#FFFFFF;" points="310.829,191.28 289.989,176.297 289.989,187.632 194.526,187.632 194.526,194.927 
						289.989,194.927 289.989,206.262 					"/>
					<polygon style="fill:#FFFFFF;" points="194.526,165.861 215.367,180.844 215.367,169.509 310.829,169.509 310.829,162.214 
						215.367,162.214 215.367,150.879 					"/>
				</g>
				<g>
					<path style="fill:#FCC14B;" d="M106.869,291.782H90.234l-7.425,3.696V273.98c0-3.277,2.657-5.934,5.934-5.934h18.126
						c3.277,0,5.934,2.657,5.934,5.934v11.868C112.802,289.125,110.146,291.782,106.869,291.782z"/>
					<g>
						<path style="fill:#46ACC3;" d="M92.037,279.762c0,1.115-0.904,2.02-2.019,2.02c-1.115,0-2.019-0.904-2.019-2.02
							c0-1.115,0.904-2.019,2.019-2.019C91.132,277.743,92.037,278.647,92.037,279.762z"/>
						<path style="fill:#46ACC3;" d="M99.825,279.762c0,1.115-0.904,2.02-2.019,2.02c-1.115,0-2.019-0.904-2.019-2.02
							c0-1.115,0.904-2.019,2.019-2.019C98.921,277.743,99.825,278.647,99.825,279.762z"/>
						<path style="fill:#46ACC3;" d="M107.614,279.762c0,1.115-0.904,2.02-2.02,2.02s-2.019-0.904-2.019-2.02
							c0-1.115,0.904-2.019,2.019-2.019S107.614,278.647,107.614,279.762z"/>
					</g>
				</g>
				<path style="fill:#E95F5C;" d="M72.629,286.118c-1.021-0.587-2.298-0.53-3.245,0.17c-0.005,0.004-0.011,0.008-0.016,0.012
					c-0.911,0.675-1.775,1.391-2.585,2.146c-0.203,0.189-3.444-3.18-3.737-3.506c-2.964-3.298-4.989-7.224-6.106-11.51
					c1.016-0.439,2.019-0.942,3.003-1.506c0.006-0.003,0.012-0.007,0.017-0.01c1.021-0.586,1.586-1.733,1.458-2.904l-0.735-6.727
					c-0.149-1.367-1.212-2.456-2.575-2.639l-1.454-0.195l-0.997-0.134c-0.11,0.059-0.218,0.121-0.326,0.183
					c-1.881,1.078-3.454,2.486-4.689,4.107c-0.728,3.849-0.709,7.844,0.116,11.759c1.524,7.23,5.752,13.684,11.773,17.969
					c3.255,2.327,6.907,3.948,10.723,4.826c1.98-0.481,3.901-1.356,5.643-2.646c0.1-0.074,0.2-0.148,0.298-0.225l0.278-0.967
					l0.405-1.41c0.379-1.322-0.191-2.732-1.383-3.418L72.629,286.118z"/>
				<g>
					<path style="fill:#2B7894;" d="M111.343,359.074c-5.78-6.798-12.428-13.374-20.903-16.165s-19.149-0.674-23.819,6.929
						c-5.069,8.253-1.177,19.531,5.851,26.196s16.445,10.033,25.237,14.097c18.633,8.614,35.477,21.077,49.164,36.376
						C140.16,401.791,127.935,378.587,111.343,359.074z"/>
					<path style="fill:#154F5E;" d="M149.886,429.79c-13.581-29.8-35.312-55.837-62.203-74.529c0,0,45.377,37.785,59.19,77.473
						L149.886,429.79z"/>
				</g>
				<g>
					<path style="fill:#36A282;" d="M75.022,362.332c-8.374-5.613-17.622-10.718-27.693-11.146
						c-10.072-0.428-21.024,5.154-23.764,14.855c-2.974,10.531,4.725,21.594,14.414,26.679c9.689,5.085,20.962,5.85,31.769,7.566
						c22.904,3.635,45.047,12.005,64.629,24.43C119.481,399.909,99.057,378.443,75.022,362.332z"/>
					<path style="fill:#1D6D56;" d="M138.661,427.357c-23.926-28.22-55.554-49.844-90.534-61.896c0,0,60.945,27.125,88.163,66.023
						L138.661,427.357z"/>
				</g>
				<g>
					<path style="fill:#36A282;" d="M382.544,352.654c4.931-6.995,10.71-13.854,18.564-17.255
						c7.854-3.401,18.233-2.307,23.354,4.551c5.559,7.444,2.82,18.554-3.315,25.531c-6.135,6.977-14.838,11.011-22.883,15.656
						c-17.051,9.846-32.059,23.213-43.804,39.016C358.726,395.959,368.39,372.733,382.544,352.654z"/>
					<path style="fill:#1D6D56;" d="M351.867,423.549c10.386-29.645,28.883-56.402,52.947-76.591c0,0-40.065,40.032-49.814,79.142
						L351.867,423.549z"/>
				</g>
				<g>
					<g>
						<path style="fill:#FCAF4B;" d="M469.796,185.813c0,10.75-2.44,20.93-6.8,30.01c-3.75,7.86-8.95,14.89-15.25,20.75
							c-0.55,0.53-1.12,1.04-1.69,1.55c-4.29,3.76-9.05,7-14.18,9.62c-1.14,0.58-2.29,1.13-3.45,1.63
							c-4.38,1.96-9.01,3.46-13.81,4.47c-4.61,0.97-8.46,4.13-10.37,8.44l-3.96,8.98l-3.94-8.92c-1.9-4.3-5.71-7.52-10.31-8.48
							c-4.83-1.01-9.48-2.52-13.89-4.49c-1.17-0.5-2.32-1.05-3.45-1.63c-5.2-2.65-10.01-5.93-14.34-9.75c-0.68-0.6-1.35-1.21-2-1.84
							c-0.43-0.41-0.85-0.82-1.27-1.24c-2.67-2.67-5.11-5.54-7.3-8.6c-8.63-12.01-13.52-26.88-12.97-42.93
							c1.21-35.95,30.24-65.36,66.19-67c13.58-0.63,26.35,2.64,37.29,8.79C455.486,137.083,469.796,159.782,469.796,185.813z"/>
						<path style="fill:#FCC14B;" d="M437.356,148.282c0,47.68-37.82,86.49-85,87.87c-0.43-0.41-0.85-0.82-1.27-1.24
							c-2.67-2.67-5.11-5.54-7.3-8.6c-8.63-12.01-13.52-26.88-12.97-42.93c1.21-35.95,30.24-65.36,66.19-67
							c13.58-0.63,26.35,2.64,37.29,8.79C436.296,132.532,437.356,140.282,437.356,148.282z"/>
						<path style="fill:#184656;" d="M447.744,236.577c-0.549,0.525-1.121,1.039-1.693,1.541
							c-8.79,7.716-19.564,13.237-31.436,15.724c-4.611,0.969-8.463,4.132-10.366,8.44l-3.969,8.977l-3.934-8.918
							c-1.903-4.296-5.708-7.517-10.307-8.475c-11.977-2.498-22.833-8.078-31.681-15.876c-1.121-0.992-2.218-2.019-3.268-3.082
							c5.79-19.331,22.914-33.77,43.657-35.58c1.459-0.128,2.941-0.198,4.436-0.198c1.576,0,3.14,0.07,4.681,0.222
							c12,1.097,22.762,6.432,30.817,14.475C440.88,220.025,445.456,227.834,447.744,236.577z"/>
						<g>
							<path style="fill:#184656;" d="M382.652,182.977c-5.921-5.404-9.39-13.396-9.295-21.411
								c0.046-3.907,0.974-7.945,3.446-10.972c2.472-3.026,6.711-4.793,10.43-3.594c1.881-5.091,7.85-6.615,13.264-6.227
								c5.413,0.388,10.429,2.827,15.565,4.58c5.137,1.752,10.962,2.791,15.861,0.455c-0.068,7.6-3.561,15.502-8.991,20.82
								c1.006,4.252,0.049,8.92-2.301,12.604c-2.35,3.684-6.232,6.355-10.512,7.235
								C400.776,185.208,391.996,184.238,382.652,182.977z"/>
							<g>
								<path style="fill:#EC946E;" d="M382.011,174.835c-0.969,2.245-3.873,3.152-6.488,2.024c-2.615-1.128-3.949-3.862-2.98-6.108
									c0.969-2.246,3.873-3.152,6.488-2.024C381.646,169.855,382.98,172.589,382.011,174.835z"/>
								<path style="fill:#EC946E;" d="M416.609,174.835c0.969,2.245,3.873,3.152,6.488,2.024c2.615-1.128,3.949-3.862,2.98-6.108
									c-0.969-2.246-3.873-3.152-6.488-2.024C416.975,169.855,415.641,172.589,416.609,174.835z"/>
							</g>
							<path style="fill:#EC946E;" d="M403.866,190.542v11.5c0,2.51-2.04,4.55-4.56,4.55c-2.51,0-4.55-2.04-4.55-4.55v-11.5H403.866
								z"/>
						</g>
						<path style="fill:#C27553;" d="M403.866,190.542v9.03c-1.47,0.35-2.99,0.53-4.56,0.53c-1.56,0-3.09-0.18-4.55-0.53v-9.03
							H403.866z"/>
						<path style="fill:#EC946E;" d="M402.792,168.758c-6.595-1.657-12.449-6.074-15.854-11.961
							c-3.079,2.753-5.835,6.478-7.666,10.477v7.997c0,11.067,8.972,20.039,20.039,20.039l0,0c11.067,0,20.039-8.972,20.039-20.039
							v-7.979C414.184,169.566,408.269,170.135,402.792,168.758z"/>
						<g>
							<path style="fill:#0C232B;" d="M431.876,247.742c-1.14,0.58-2.29,1.13-3.45,1.63l-3.02-26.35L431.876,247.742z"/>
							<path style="fill:#0C232B;" d="M375.156,223.022l-3.01,26.35c-1.17-0.5-2.32-1.05-3.45-1.63L375.156,223.022z"/>
						</g>
					</g>
				</g>
				<g>
					<g>
						<path style="fill:#265161;" d="M332.692,422.687c-1.594,0-3.185-0.047-4.779-0.14l0.616-10.488
							c26.419,1.548,52.913-11.689,67.535-33.729c14.621-22.041,16.513-51.612,4.818-75.336
							c-11.695-23.723-36.3-40.232-62.686-42.058l0.725-10.481c30.047,2.079,58.067,20.879,71.384,47.895
							c13.317,27.014,11.163,60.687-5.487,85.787C389.05,407.905,361.14,422.686,332.692,422.687z"/>
					</g>
					<g>
						<path style="fill:#E95F5C;" d="M266.55,258.294v10.734c0,2.328-1.888,4.216-4.216,4.216h-32.441
							c-2.328,0-4.216-1.888-4.216-4.216v-10.734c0-3.371-2.733-6.104-6.104-6.104h-7.983c-3.371,0-6.104,2.733-6.104,6.104v35.141
							h15.848h4.342h40.873h4.342h15.848v-35.141c0-3.371-2.733-6.104-6.104-6.104h-7.983
							C269.283,252.19,266.55,254.923,266.55,258.294z"/>
						<rect x="205.486" y="283.026" style="fill:#C8505A;" width="81.255" height="10.409"/>
						<path style="fill:#E95F5C;" d="M343.676,435.073h-195.13c-17.68,0-30.68-16.57-26.49-33.74l15.57-63.75
							c0.43-1.77,1.03-3.47,1.79-5.07c4.4-9.45,13.95-15.73,24.7-15.73h3.53c4.47,0,8.64-1.53,11.96-4.13
							c3.33-2.61,5.8-6.3,6.86-10.64c0.61-2.51,1.83-4.74,3.49-6.55c2.77-3.04,6.74-4.89,11.07-4.89h90.17
							c3.46,0,6.69,1.18,9.26,3.2c2.58,2.02,4.49,4.88,5.31,8.24c2.11,8.67,9.88,14.77,18.81,14.77h3.53
							c12.57,0,23.51,8.59,26.49,20.8l15.57,63.75C374.366,418.503,361.356,435.073,343.676,435.073z"/>
						<path style="fill:#C8505A;" d="M370.169,401.331l-15.569-63.75c-2.982-12.209-13.922-20.799-26.49-20.799h-3.533
							c-7.078,0-13.417-3.844-16.8-9.756H201.689c-5.339,0-9.667,4.328-9.667,9.667v0c0,5.339,4.328,9.667,9.667,9.667h86.667
							c10.493,0,19,8.507,19,19l0,0c0,10.493-8.507,19-19,19H169.145c-22.34,0-41.787,15.269-47.087,36.972v0
							c-4.194,17.174,8.811,33.737,26.49,33.737h195.132C361.358,435.068,374.363,418.505,370.169,401.331z"/>
						<g>
							<rect x="220.751" y="307.832" style="fill:#265161;" width="23.612" height="20.684"/>
							<rect x="220.751" y="359.132" style="fill:#265161;" width="23.612" height="20.684"/>
							<rect x="220.751" y="332.018" style="fill:#265161;" width="23.612" height="23.612"/>
							<rect x="247.864" y="332.018" style="fill:#265161;" width="23.612" height="23.612"/>
							<path style="fill:#265161;" d="M274.978,328.516h20.443v-3.953c0-9.24-7.491-16.731-16.731-16.731h-3.711V328.516z"/>
							<rect x="196.806" y="332.018" style="fill:#265161;" width="20.443" height="23.612"/>
							<path style="fill:#265161;" d="M274.978,359.132v20.684h3.711c9.241,0,16.731-7.491,16.731-16.732v-3.953H274.978z"/>
							<path style="fill:#265161;" d="M217.249,359.132h-20.443v3.953c0,9.241,7.491,16.732,16.731,16.732h3.711V359.132z"/>
							<path style="fill:#265161;" d="M217.249,328.516v-20.684h-3.711c-9.24,0-16.731,7.491-16.731,16.731v3.953H217.249z"/>
							<rect x="247.864" y="359.132" style="fill:#265161;" width="23.612" height="20.684"/>
							<rect x="274.978" y="332.018" style="fill:#265161;" width="20.443" height="23.612"/>
							<rect x="247.864" y="307.832" style="fill:#265161;" width="23.612" height="20.684"/>
						</g>
						<path style="fill:#FFFFFF;" d="M163.788,342.24c-1.409,7.682-5.588,13.353-9.336,12.665
							c-3.747-0.687-5.643-7.472-4.235-15.154c1.409-7.682,5.588-13.352,9.336-12.665
							C163.301,327.774,165.197,334.558,163.788,342.24z"/>
					</g>
					<g>
						<path style="fill:#E95F5C;" d="M366.806,288.763h-53.4l-3.59-12.57c-5.37-14.43-19.14-24-34.54-24h-58.33
							c-15.39,0-29.16,9.57-34.53,24l-3.6,12.57h-53.4l12.14-32.63c0.05-0.13,0.1-0.27,0.15-0.4c7.8-20.63,27.77-34.09,49.82-34.09
							h117.18c22.04,0,42.02,13.46,49.81,34.08c0.05,0.14,0.1,0.28,0.15,0.41L366.806,288.763z"/>
						<path style="fill:#C8505A;" d="M331.516,288.763h-18.11l-3.59-12.57c-5.37-14.43-19.14-24-34.54-24h-58.33
							c-15.39,0-29.16,9.57-34.53,24l-3.6,12.57h-18.11l8.59-24.46c0.04-0.1,0.07-0.21,0.11-0.31
							c5.52-15.46,19.65-25.55,35.25-25.55h82.92c15.59,0,29.73,10.09,35.24,25.55c0.04,0.1,0.08,0.2,0.11,0.31L331.516,288.763z"/>
						<polygon style="fill:#C8505A;" points="129.043,279.026 125.42,288.766 178.818,288.766 181.603,279.026 						"/>
						<polygon style="fill:#C8505A;" points="310.623,279.026 313.409,288.766 366.807,288.766 363.184,279.026 						"/>
						<g>
							<path style="fill:#C8505A;" d="M189.756,324.622c-3.83,5.02-9.64,7.89-15.95,7.89h-34.39c4.4-9.45,13.95-15.73,24.7-15.73
								h3.53c4.47,0,8.64-1.53,11.96-4.13c3.33-2.61,5.8-6.3,6.86-10.64c0.61-2.51,1.83-4.74,3.49-6.55l3.2,11.68
								C194.826,313.232,193.586,319.602,189.756,324.622z"/>
							<path style="fill:#E95F5C;" d="M173.803,328.516h-41.917c-10.603,0-18.298-10.089-15.495-20.315l4.08-14.883
								c0.737-2.689,3.181-4.553,5.969-4.553h52.808c2.788,0,5.232,1.864,5.969,4.553l4.081,14.883
								C192.101,318.427,184.406,328.516,173.803,328.516z"/>
							<path style="fill:#E95F5C;" d="M360.341,328.516h-41.917c-10.603,0-18.298-10.089-15.495-20.315l4.081-14.883
								c0.737-2.689,3.181-4.553,5.969-4.553h52.808c2.788,0,5.232,1.864,5.969,4.553l4.08,14.883
								C378.639,318.427,370.943,328.516,360.341,328.516z"/>
							<path style="fill:#C8505A;" d="M186.416,297.693l-1.199-4.374c-0.737-2.689-3.181-4.553-5.969-4.553H126.44
								c-2.788,0-5.231,1.864-5.969,4.553l-1.199,4.374H186.416z"/>
							<path style="fill:#C8505A;" d="M372.954,297.693l-1.199-4.374c-0.737-2.689-3.181-4.553-5.969-4.553h-52.808
								c-2.788,0-5.232,1.864-5.969,4.553l-1.199,4.374H372.954z"/>
							<g>
								<path style="fill:#E95F5C;" d="M180.86,294.992h-56.031c-3.653,0-6.615-2.962-6.615-6.615l0,0
									c0-3.653,2.961-6.615,6.615-6.615h56.031c3.653,0,6.615,2.962,6.615,6.615l0,0
									C187.474,292.03,184.513,294.992,180.86,294.992z"/>
							</g>
							<g>
								<path style="fill:#E95F5C;" d="M367.397,294.992h-56.031c-3.653,0-6.615-2.962-6.615-6.615l0,0
									c0-3.653,2.962-6.615,6.615-6.615h56.031c3.653,0,6.615,2.962,6.615,6.615l0,0
									C374.012,292.03,371.051,294.992,367.397,294.992z"/>
							</g>
						</g>
					</g>
				</g>
				<g>
					<path style="fill:#2B8268;" d="M447.143,266.626c-0.824-0.723-1.891-1.175-3.074-1.175h-24.292
						c-1.182,0-2.25,0.453-3.074,1.175l15.22,11.117L447.143,266.626z"/>
					<path style="fill:#36A282;" d="M416.704,266.626c-0.979,0.858-1.609,2.103-1.609,3.507v15.219c0,1.404,0.631,2.649,1.609,3.507
						l15.22-11.117L416.704,266.626z"/>
					<path style="fill:#36A282;" d="M447.143,266.626l-15.219,11.117l15.219,11.117c0.979-0.858,1.609-2.103,1.609-3.507v-15.219
						C448.753,268.729,448.122,267.484,447.143,266.626z"/>
					<path style="fill:#2B8268;" d="M416.704,288.859c0.824,0.723,1.891,1.176,3.074,1.176h24.292c1.182,0,2.249-0.453,3.074-1.176
						l-15.219-11.117L416.704,288.859z"/>
				</g>
				<g>
					<path style="fill:#E95F5C;" d="M374.546,264.079c-4.783,4.783-4.783,12.538,0,17.32c4.783,4.783,12.538,4.783,17.32,0
						c4.783-4.783,4.783-12.538,0-17.32C387.084,259.296,379.329,259.296,374.546,264.079z M387.803,277.335
						c-2.538,2.538-6.654,2.538-9.193,0c-2.538-2.539-2.538-6.654,0-9.193c2.538-2.539,6.654-2.539,9.193,0
						C390.341,270.681,390.341,274.797,387.803,277.335z"/>
					<g>
						
							<rect x="392.376" y="277.72" transform="matrix(0.7071 -0.7071 0.7071 0.7071 -84.8264 361.0365)" style="fill:#E95F5C;" width="2" height="10.376"/>
					</g>
					<path style="fill:#E95F5C;" d="M404.564,294.096L404.564,294.096c-1.197,1.197-3.137,1.197-4.333,0l-5.468-5.468
						c-1.197-1.197-1.197-3.137,0-4.333l0,0c1.197-1.197,3.137-1.197,4.333,0l5.468,5.468
						C405.761,290.96,405.761,292.9,404.564,294.096z"/>
				</g>
				<path style="fill:#BCE1E9;" d="M278.686,146.258h83.34c-0.223-3.091-1.819-6.058-4.351-7.85c-2.638-1.867-6.161-2.42-9.244-1.45
					c1.751-5.179-1.209-11.647-6.022-14.241c-4.813-2.594-11.405-1.21-14.768,3.101c0.872-5.77-2.555-11.836-7.467-14.988
					c-4.911-3.152-11.919-2.795-16.255,1.111c-4.336,3.906-5.34,11.128-1.951,15.879c-2.966-1.549-7.154-0.122-9.864,1.841
					c-2.71,1.963-4.169,5.517-3.622,8.817C284.24,138.893,280.154,142.21,278.686,146.258z"/>
			</g>
			<g>
				<g>
					<path style="fill:#256780;" d="M172.439,174.435c0,10.75-2.43,20.93-6.79,30.01c-4.1,8.54-9.89,16.13-16.95,22.3
						c-8.79,7.71-19.56,13.23-31.43,15.72c-4.61,0.97-8.47,4.13-10.37,8.44l-3.97,8.98l-3.93-8.92c-1.9-4.3-5.71-7.52-10.31-8.48
						c-10.82-2.26-20.72-7.03-29.05-13.68c-0.9-0.7-1.77-1.43-2.63-2.19c-3.95-3.48-7.51-7.39-10.58-11.68
						c-8.62-12.01-13.51-26.88-12.96-42.93c1.21-35.95,30.24-65.36,66.18-67c10.76-0.5,21.01,1.45,30.25,5.33
						C154.9,120.875,172.439,145.605,172.439,174.435z"/>
					<path style="fill:#2B7894;" d="M147.829,157.355c0,40.07-33.66,72.54-75.18,72.54c-4.44,0-8.79-0.37-13.01-1.09
						c-0.9-0.7-1.77-1.43-2.63-2.19c-3.95-3.48-7.51-7.39-10.58-11.68c-8.62-12.01-13.51-26.88-12.96-42.93
						c1.21-35.95,30.24-65.36,66.18-67c10.76-0.5,21.01,1.45,30.25,5.33C141.079,122.995,147.829,139.415,147.829,157.355z"/>
					<path style="fill:#184656;" d="M165.65,204.445c-4.097,8.545-9.887,16.132-16.949,22.296
						c-8.79,7.716-19.564,13.237-31.436,15.724c-4.611,0.969-8.463,4.132-10.366,8.44l-3.969,8.977l-3.934-8.918
						c-1.903-4.296-5.708-7.517-10.307-8.475c-11.977-2.498-22.833-8.078-31.681-15.875c-3.945-3.479-7.506-7.389-10.576-11.673
						c0.91-3.479,2.626-6.864,4.623-9.829c4.062-6.047,9.35-11.393,12.07-18.163c3.747-9.338,2.078-19.938,4.039-29.813
						c2.195-10.984,9.152-20.941,18.712-26.79c9.56-5.836,21.595-7.482,32.369-4.412c9.339,2.65,17.977,9.222,21.07,18.42
						c3.957,11.766-1.541,25.401,3.385,36.794c3.397,7.856,10.996,12.875,17.615,18.303
						C162.16,200.966,163.981,202.635,165.65,204.445z"/>
					<g>
						<path style="fill:#E95F5C;" d="M148.699,226.745c-6.14,5.39-13.25,9.71-21.03,12.66c-1.71,0.66-3.46,1.24-5.23,1.75
							c-1.7,0.51-3.42,0.94-5.17,1.31c-4.61,0.97-8.47,4.13-10.37,8.44l-3.97,8.98l-3.93-8.92c-1.9-4.3-5.71-7.52-10.31-8.48
							c-1.84-0.38-3.64-0.84-5.42-1.37c-1.77-0.51-3.51-1.1-5.21-1.76c-7.79-2.98-14.9-7.33-21.05-12.74
							c6.26-17.69,22.47-30.67,41.92-32.22c1.28-0.11,2.58-0.15,3.9-0.15s2.62,0.04,3.91,0.15c11.87,0.95,22.54,6.15,30.46,14.08
							C142.299,213.575,146.269,219.795,148.699,226.745z"/>
						<g>
							<path style="fill:#C8505A;" d="M113.102,198.795c1.865,2.223,1.575,5.537-0.648,7.402c-2.223,1.865-5.537,1.575-7.402-0.648
								c-1.865-2.223-3.319-7.617-1.096-9.482C106.178,194.202,111.237,196.572,113.102,198.795z"/>
							<path style="fill:#C8505A;" d="M92.56,198.795c-1.865,2.223-1.575,5.537,0.649,7.402c2.223,1.865,5.537,1.575,7.402-0.648
								c1.865-2.223,3.319-7.617,1.096-9.482C99.484,194.202,94.425,196.572,92.56,198.795z"/>
						</g>
					</g>
				</g>
				<path style="fill:#EC946E;" d="M106.74,185.235v14.1c0,2.16-1.75,3.91-3.91,3.91c-2.16,0-3.9-1.75-3.9-3.91v-14.1H106.74z"/>
				<path style="fill:#C27553;" d="M106.74,185.235v6.7c-1.27,0.26-2.57,0.39-3.91,0.39c-1.33,0-2.64-0.13-3.9-0.38v-6.71H106.74z"
					/>
				<path style="fill:#EC946E;" d="M109.504,156.957c-4.924-3.914-8.676-9.266-10.733-15.208h-0.638
					c-0.257,4.982-2.58,9.703-6.076,13.345c-2.523,2.629-5.766,4.537-9.264,5.551v6.785c0,11.067,8.972,20.039,20.039,20.039h0
					c11.067,0,20.039-8.972,20.039-20.039v-4.099C118.016,162.224,113.402,160.056,109.504,156.957z"/>
				<g>
					<path style="fill:#C8505A;" d="M83.27,218.645v22.47c-1.77-0.51-3.51-1.1-5.21-1.76L83.27,218.645z"/>
					<path style="fill:#C8505A;" d="M127.67,239.405c-1.71,0.66-3.46,1.24-5.23,1.75v-22.51L127.67,239.405z"/>
				</g>
			</g>
			<path style="fill:#BCE1E9;" d="M143.651,146.258h83.34c-0.223-3.091-1.819-6.058-4.351-7.85c-2.638-1.867-6.161-2.42-9.244-1.45
				c1.751-5.179-1.209-11.647-6.022-14.241c-4.813-2.594-11.405-1.21-14.768,3.101c0.872-5.77-2.555-11.836-7.467-14.988
				c-4.911-3.152-11.919-2.795-16.255,1.111c-4.336,3.906-5.339,11.128-1.951,15.879c-2.966-1.549-7.154-0.122-9.864,1.841
				c-2.71,1.963-4.169,5.517-3.622,8.817C149.205,138.893,145.119,142.21,143.651,146.258z"/>
		</g>
	</g>
</g>
<g id="DESIGNED_BY_FREEPIK">
	<g>
		<g id="XMLID_57_">
			<g id="XMLID_76_">
				<path id="XMLID_84_" style="fill:#102028;" d="M260.104,465.465c-0.432,0.443-0.803,0.931-1.108,1.453l-0.465-0.241
					c-0.067-0.298-0.349-0.503-0.659-0.466c-0.331,0.039-0.568,0.339-0.529,0.67s0.339,0.568,0.67,0.529
					c0.065-0.008,0.127-0.026,0.184-0.052l0.451,0.234c-0.251,0.554-0.433,1.139-0.539,1.744l0.746,0.132
					c0.23-1.306,0.85-2.507,1.792-3.473L260.104,465.465z"/>
				<path id="XMLID_83_" style="fill:#102028;" d="M265.592,463.163c-0.171,0-0.341,0.006-0.51,0.017l-0.074-0.626
					c0.188-0.149,0.296-0.389,0.266-0.645c-0.046-0.393-0.402-0.674-0.795-0.628s-0.674,0.402-0.628,0.795
					c0.03,0.254,0.189,0.461,0.405,0.564l0.073,0.624c-0.714,0.116-1.403,0.332-2.06,0.646l0.327,0.684
					c0.934-0.447,1.942-0.673,2.995-0.673c0.496,0,0.993,0.053,1.475,0.158l0.161-0.741
					C266.693,463.222,266.142,463.163,265.592,463.163z"/>
				<path id="XMLID_82_" style="fill:#102028;" d="M272.194,465.711c0.331-0.04,0.566-0.341,0.525-0.672
					c-0.04-0.331-0.341-0.566-0.672-0.526c-0.309,0.038-0.535,0.304-0.53,0.609l-0.416,0.363c-0.418-0.43-0.89-0.813-1.408-1.139
					l-0.404,0.641c1.134,0.715,2.021,1.726,2.563,2.925l0.69-0.313c-0.251-0.554-0.568-1.072-0.942-1.545l0.402-0.351
					C272.065,465.716,272.129,465.719,272.194,465.711z"/>
				<path id="XMLID_81_" style="fill:#102028;" d="M265.044,473.372c-0.386,0.023-0.775,0.035-1.157,0.035
					c-0.88,0-1.733-0.061-2.478-0.179c-0.39-0.062-0.846-0.155-1.27-0.292c1.046,1.861,3.069,3.125,5.388,3.125
					c2.855,0,5.262-1.916,5.95-4.504c-0.682,0.449-1.505,0.825-2.459,1.123C267.839,473.047,266.464,473.286,265.044,473.372z"/>
				<path id="XMLID_77_" style="fill:#102028;" d="M265.592,464.68c-3.352,0-6.08,2.666-6.08,5.943c0,0.426,0.046,0.849,0.137,1.261
					c0.674,0.483,2.706,0.89,5.348,0.731c2.879-0.173,5.297-0.957,6.672-2.159c-0.005-0.195-0.021-0.39-0.045-0.582
					C271.244,466.913,268.65,464.68,265.592,464.68z M263.432,471.194c-1.02,0-1.85-0.83-1.85-1.85c0-1.02,0.83-1.85,1.85-1.85
					c1.02,0,1.85,0.83,1.85,1.85C265.282,470.365,264.452,471.194,263.432,471.194z M268.17,470.286c-0.75,0-1.36-0.61-1.36-1.36
					s0.61-1.361,1.36-1.361c0.75,0,1.361,0.61,1.361,1.361S268.92,470.286,268.17,470.286z"/>
			</g>
			<path id="XMLID_74_" style="fill:#102028;" d="M281.595,466.547c-0.295-0.116-0.806-0.309-1.382-0.237
				c-0.551,0.069-0.844,0.341-0.844,1.007v0.866h2.228v1.717h-2.228v5.455h-1.932v-5.455h-1.34v-1.717h1.34v-0.888
				c0-1.68,0.895-2.783,2.568-2.783c0.642,0,1.157,0.122,1.59,0.308L281.595,466.547z"/>
			<path id="XMLID_72_" style="fill:#102028;" d="M286.298,469.879c-0.177-0.03-0.358-0.046-0.526-0.046
				c-0.896,0-1.51,0.548-1.51,1.614v3.908h-1.932v-7.172h1.873v0.785c0.451-0.673,1.14-0.977,2.021-0.977
				c0.414,0,0.848,0.128,1.094,0.337L286.298,469.879z"/>
			<path id="XMLID_69_" style="fill:#102028;" d="M293.965,471.757c0,0.222-0.015,0.489-0.037,0.651h-5.085
				c0.207,1.036,0.933,1.488,1.843,1.488c0.622,0,1.295-0.252,1.813-0.688l1.133,1.243c-0.814,0.748-1.85,1.088-3.057,1.088
				c-2.198,0-3.723-1.495-3.723-3.753c0-2.258,1.48-3.797,3.626-3.797C292.544,467.99,293.958,469.522,293.965,471.757z
				 M288.851,471.091h3.175c-0.178-0.918-0.733-1.436-1.562-1.436C289.554,469.655,289.021,470.203,288.851,471.091z"/>
			<path id="XMLID_66_" style="fill:#102028;" d="M301.618,471.757c0,0.222-0.015,0.489-0.037,0.651h-5.085
				c0.207,1.036,0.932,1.488,1.843,1.488c0.622,0,1.295-0.252,1.813-0.688l1.132,1.243c-0.814,0.748-1.85,1.088-3.057,1.088
				c-2.198,0-3.723-1.495-3.723-3.753c0-2.258,1.48-3.797,3.627-3.797C300.197,467.99,301.611,469.522,301.618,471.757z
				 M296.504,471.091h3.175c-0.178-0.918-0.733-1.436-1.562-1.436C297.207,469.655,296.674,470.203,296.504,471.091z"/>
			<path id="XMLID_63_" style="fill:#102028;" d="M309.964,471.764c0,2.154-1.495,3.775-3.471,3.775
				c-0.962,0-1.643-0.378-2.109-0.933v3.708h-1.924v-10.133h1.887v0.792c0.466-0.585,1.155-0.984,2.139-0.984
				C308.469,467.99,309.964,469.61,309.964,471.764z M304.287,471.764c0,1.132,0.747,1.976,1.843,1.976
				c1.14,0,1.85-0.881,1.85-1.976c0-1.095-0.711-1.976-1.85-1.976C305.035,469.788,304.287,470.632,304.287,471.764z"/>
			<path id="XMLID_60_" style="fill:#102028;" d="M313.068,465.836c0,0.696-0.54,1.229-1.236,1.229
				c-0.696,0-1.229-0.533-1.229-1.229c0-0.696,0.533-1.243,1.229-1.243C312.527,464.592,313.068,465.14,313.068,465.836z
				 M312.809,475.354h-1.932v-7.172h1.932V475.354z"/>
			<path id="XMLID_58_" style="fill:#102028;" d="M316.032,470.736l2.702-2.554h2.368l-3.479,3.375l3.501,3.797h-2.376l-2.716-2.901
				v2.901H314.1v-10.658h1.932V470.736z"/>
		</g>
		<g>
			<path style="fill:#102028;" d="M184.412,475.289v-1.055c-0.527,0.718-1.391,1.23-2.387,1.23c-1.846,0-3.149-1.406-3.149-3.706
				c0-2.256,1.289-3.721,3.149-3.721c0.952,0,1.816,0.469,2.387,1.245v-3.765h1.099v9.77H184.412z M184.412,473.37v-3.208
				c-0.395-0.615-1.245-1.143-2.124-1.143c-1.421,0-2.27,1.172-2.27,2.739c0,1.567,0.85,2.724,2.27,2.724
				C183.168,474.483,184.017,473.986,184.412,473.37z"/>
			<path style="fill:#102028;" d="M186.932,471.744c0-2.051,1.465-3.706,3.486-3.706c2.139,0,3.398,1.67,3.398,3.794v0.279h-5.727
				c0.088,1.333,1.025,2.446,2.549,2.446c0.806,0,1.626-0.322,2.182-0.894l0.527,0.718c-0.703,0.703-1.655,1.084-2.812,1.084
				C188.441,475.465,186.932,473.956,186.932,471.744z M190.404,468.947c-1.509,0-2.256,1.274-2.314,2.358h4.643
				C192.718,470.25,192.015,468.947,190.404,468.947z"/>
			<path style="fill:#102028;" d="M194.607,474.351l0.571-0.791c0.469,0.542,1.362,1.011,2.329,1.011c1.084,0,1.67-0.513,1.67-1.216
				c0-1.714-4.38-0.659-4.38-3.281c0-1.098,0.952-2.036,2.636-2.036c1.201,0,2.051,0.454,2.622,1.026l-0.513,0.762
				c-0.424-0.513-1.201-0.894-2.109-0.894c-0.967,0-1.567,0.483-1.567,1.113c0,1.552,4.38,0.527,4.38,3.281
				c0,1.187-0.952,2.138-2.783,2.138C196.306,475.465,195.325,475.113,194.607,474.351z"/>
			<path style="fill:#102028;" d="M201.477,466.471c0-0.41,0.337-0.747,0.732-0.747c0.41,0,0.747,0.337,0.747,0.747
				c0,0.41-0.337,0.732-0.747,0.732C201.814,467.203,201.477,466.881,201.477,466.471z M201.667,475.289v-7.075h1.099v7.075H201.667
				z"/>
			<path style="fill:#102028;" d="M204.582,477.105l0.556-0.82c0.586,0.703,1.289,0.967,2.3,0.967c1.172,0,2.27-0.571,2.27-2.124
				v-1.011c-0.513,0.718-1.377,1.26-2.373,1.26c-1.845,0-3.149-1.377-3.149-3.662c0-2.27,1.289-3.677,3.149-3.677
				c0.952,0,1.802,0.469,2.373,1.245v-1.069h1.099v6.87c0,2.344-1.641,3.076-3.369,3.076
				C206.237,478.16,205.417,477.926,204.582,477.105z M209.709,473.253v-3.091c-0.381-0.615-1.23-1.143-2.109-1.143
				c-1.421,0-2.27,1.128-2.27,2.695c0,1.553,0.849,2.695,2.27,2.695C208.478,474.41,209.328,473.868,209.709,473.253z"/>
			<path style="fill:#102028;" d="M217.413,475.289v-4.629c0-1.245-0.63-1.641-1.582-1.641c-0.865,0-1.685,0.527-2.095,1.099v5.17
				h-1.099v-7.075h1.099v1.025c0.498-0.586,1.464-1.201,2.519-1.201c1.48,0,2.256,0.747,2.256,2.285v4.966H217.413z"/>
			<path style="fill:#102028;" d="M219.932,471.744c0-2.051,1.465-3.706,3.486-3.706c2.139,0,3.398,1.67,3.398,3.794v0.279h-5.727
				c0.088,1.333,1.025,2.446,2.549,2.446c0.806,0,1.626-0.322,2.183-0.894l0.527,0.718c-0.703,0.703-1.655,1.084-2.812,1.084
				C221.441,475.465,219.932,473.956,219.932,471.744z M223.404,468.947c-1.509,0-2.256,1.274-2.314,2.358h4.643
				C225.718,470.25,225.015,468.947,223.404,468.947z"/>
			<path style="fill:#102028;" d="M233.35,475.289v-1.055c-0.527,0.718-1.392,1.23-2.388,1.23c-1.846,0-3.149-1.406-3.149-3.706
				c0-2.256,1.289-3.721,3.149-3.721c0.952,0,1.817,0.469,2.388,1.245v-3.765h1.098v9.77H233.35z M233.35,473.37v-3.208
				c-0.396-0.615-1.245-1.143-2.124-1.143c-1.421,0-2.27,1.172-2.27,2.739c0,1.567,0.849,2.724,2.27,2.724
				C232.105,474.483,232.954,473.986,233.35,473.37z"/>
			<path style="fill:#102028;" d="M239.692,475.289v-9.77h1.098v3.765c0.572-0.776,1.421-1.245,2.388-1.245
				c1.845,0,3.149,1.465,3.149,3.721c0,2.299-1.304,3.706-3.149,3.706c-0.996,0-1.86-0.513-2.388-1.23v1.055H239.692z
				 M242.9,474.483c1.436,0,2.286-1.157,2.286-2.724c0-1.568-0.85-2.739-2.286-2.739c-0.864,0-1.728,0.527-2.109,1.143v3.208
				C241.171,473.986,242.036,474.483,242.9,474.483z"/>
			<path style="fill:#102028;" d="M247.529,477.061c0.161,0.073,0.425,0.117,0.601,0.117c0.483,0,0.805-0.161,1.055-0.747
				l0.469-1.069l-2.959-7.148h1.187l2.358,5.8l2.344-5.8h1.201l-3.545,8.51c-0.425,1.025-1.143,1.421-2.08,1.435
				c-0.234,0-0.601-0.044-0.805-0.103L247.529,477.061z"/>
		</g>
	</g>
</g>
</svg>
